<svg width="512" height="450.00000000000006" xmlns="http://www.w3.org/2000/svg" class="svg-inline--fa fa-quote-right fa-w-16">
 <g>
  <title>background</title>
  <rect x="-1" y="-1" width="195.321414" height="171.911399" id="canvas_background" fill="none"/>
 </g>

 <g>
  <title>Layer 1</title>
  <path fill="#dde2ec" d="m464,0.888952l-128,0c-26.5,0 -48,21.5 -48,48l0,128c0,26.5 21.5,48 48,48l80,0l0,64c0,35.3 -28.7,64 -64,64l-8,0c-13.3,0 -24,10.7 -24,24l0,48c0,13.3 10.7,24 24,24l8,0c88.4,0 160,-71.6 160,-160l0,-240c0,-26.5 -21.5,-48 -48,-48zm-288,0l-128,0c-26.5,0 -48,21.5 -48,48l0,128c0,26.5 21.5,48 48,48l80,0l0,64c0,35.3 -28.7,64 -64,64l-8,0c-13.3,0 -24,10.7 -24,24l0,48c0,13.3 10.7,24 24,24l8,0c88.4,0 160,-71.6 160,-160l0,-240c0,-26.5 -21.5,-48 -48,-48z" id="svg_1"/>
 </g>
</svg>