<svg width="512" height="449.99999999999994" xmlns="http://www.w3.org/2000/svg" class="svg-inline--fa fa-quote-left fa-w-16">
 <g>
  <title>background</title>
  <rect fill="none" id="canvas_background" height="171.909646" width="195.319419" y="-1" x="-1"/>
 </g>

 <g>
  <title>Layer 1</title>
  <path id="svg_1" d="m464.03705,225.66667l-80,0l0,-64c0,-35.3 28.7,-64 64,-64l8,0c13.3,0 24,-10.7 24,-24l0,-48c0,-13.3 -10.7,-24 -24,-24l-8,0c-88.4,0 -160,71.6 -160,160l0,240c0,26.5 21.5,48 48,48l128,0c26.5,0 48,-21.5 48,-48l0,-128c0,-26.5 -21.5,-48 -48,-48zm-288,0l-80,0l0,-64c0,-35.3 28.7,-64 64,-64l8,0c13.3,0 24,-10.7 24,-24l0,-48c0,-13.3 -10.7,-24 -24,-24l-8,0c-88.4,0 -160,71.6 -160,160l0,240c0,26.5 21.5,48 48,48l128,0c26.5,0 48,-21.5 48,-48l0,-128c0,-26.5 -21.5,-48 -48,-48z" fill="#dde2ec"/>
 </g>
</svg>